<svg width="26" height="27" viewBox="0 0 26 27" fill="none" xmlns="http://www.w3.org/2000/svg">
<path d="M0.406249 13.5C0.406249 20.7246 6.04297 26.5781 13 26.5781C19.957 26.5781 25.5938 20.7246 25.5938 13.5C25.5938 6.27539 19.957 0.421876 13 0.421876C6.04297 0.421875 0.40625 6.27539 0.406249 13.5ZM13 2.10938C19.0277 2.10938 23.9688 7.17715 23.9688 13.5C23.9688 19.7596 19.0887 24.8906 13 24.8906C6.97227 24.8906 2.03125 19.8229 2.03125 13.5C2.03125 7.24043 6.91133 2.10938 13 2.10938ZM13.6348 6.98731L19.4797 13.0518C19.7184 13.2996 19.7184 13.7004 19.4797 13.9482L13.6348 20.0127C13.3961 20.2605 13.0102 20.2605 12.7715 20.0127L12.4211 19.6488C12.1824 19.401 12.1824 18.9896 12.4312 18.7471L16.773 14.3965L7.10937 14.3965C6.77422 14.3965 6.5 14.1117 6.5 13.7637L6.5 13.2363C6.5 12.8883 6.77422 12.6035 7.10937 12.6035L16.773 12.6035L12.4262 8.25293C12.1824 8.00508 12.1773 7.59902 12.416 7.35117L12.7664 6.98731C13.0102 6.73945 13.3961 6.73945 13.6348 6.98731Z" fill="currentColor"/>
</svg>
