<svg width="19" height="27" viewBox="0 0 19 27" fill="none" xmlns="http://www.w3.org/2000/svg">
<path d="M9.5 0.84375C7.03846 0.84375 4.67774 1.82159 2.93717 3.56217C1.19659 5.30274 0.21875 7.66346 0.21875 10.125C0.21875 15.0272 8.4875 25.3969 8.84188 25.8441C8.92094 25.9426 9.02112 26.0221 9.13503 26.0768C9.24893 26.1314 9.37366 26.1598 9.5 26.1598C9.62634 26.1598 9.75107 26.1314 9.86497 26.0768C9.97888 26.0221 10.0791 25.9426 10.1581 25.8441C10.5125 25.3969 18.7812 15.0272 18.7812 10.125C18.7812 7.66346 17.8034 5.30274 16.0628 3.56217C14.3223 1.82159 11.9615 0.84375 9.5 0.84375ZM9.5 23.9456C6.89281 20.5706 1.90625 13.3988 1.90625 10.125C1.90625 8.11101 2.7063 6.17951 4.13041 4.75541C5.55451 3.3313 7.48601 2.53125 9.5 2.53125C11.514 2.53125 13.4455 3.3313 14.8696 4.75541C16.2937 6.17951 17.0938 8.11101 17.0938 10.125C17.0938 13.3988 12.1072 20.5537 9.5 23.9456Z" fill="currentColor"/>
<path d="M9.5 4.21875C8.49873 4.21875 7.51995 4.51566 6.68743 5.07193C5.8549 5.62821 5.20603 6.41886 4.82286 7.34391C4.43969 8.26896 4.33944 9.28686 4.53478 10.2689C4.73011 11.2509 5.21227 12.153 5.92027 12.861C6.62828 13.569 7.53033 14.0511 8.51236 14.2465C9.49439 14.4418 10.5123 14.3415 11.4373 13.9584C12.3624 13.5752 13.153 12.9263 13.7093 12.0938C14.2656 11.2613 14.5625 10.2825 14.5625 9.28124C14.5625 7.93859 14.0291 6.65092 13.0797 5.70152C12.1303 4.75212 10.8427 4.21875 9.5 4.21875ZM9.5 12.6562C8.83249 12.6562 8.17997 12.4583 7.62495 12.0874C7.06994 11.7166 6.63735 11.1895 6.38191 10.5728C6.12646 9.9561 6.05963 9.2775 6.18985 8.62281C6.32008 7.96813 6.64151 7.36676 7.11352 6.89476C7.58552 6.42276 8.18689 6.10132 8.84157 5.9711C9.49626 5.84087 10.1749 5.90771 10.7916 6.16315C11.4083 6.4186 11.9354 6.85118 12.3062 7.4062C12.6771 7.96121 12.875 8.61373 12.875 9.28124C12.875 10.1763 12.5194 11.0348 11.8865 11.6677C11.2536 12.3007 10.3951 12.6562 9.5 12.6562Z" fill="currentColor"/>
</svg>
