<svg width="21" height="19" viewBox="0 0 21 19" fill="none" xmlns="http://www.w3.org/2000/svg">
<path d="M1.11554 10.3589L8.29704 18.1282C8.50204 18.3499 8.77527 18.4717 9.0666 18.4717C9.35826 18.4717 9.63132 18.3498 9.83633 18.1282L10.4884 17.4226C10.6932 17.2012 10.806 16.9054 10.806 16.5901C10.806 16.2749 10.6932 15.9692 10.4884 15.7478L6.29877 11.2054L19.6093 11.2054C20.2094 11.2054 20.6836 10.6971 20.6836 10.0477L20.6836 9.05026C20.6836 8.40085 20.2094 7.84134 19.6093 7.84134L6.25123 7.84134L10.4882 3.27362C10.693 3.05184 10.8059 2.76413 10.8059 2.44878C10.8059 2.13378 10.693 1.84187 10.4882 1.62027L9.83616 0.916993C9.63116 0.695218 9.3581 0.574361 9.06644 0.574361C8.77511 0.574361 8.50188 0.696791 8.29688 0.918567L1.11538 8.68769C0.90989 8.91016 0.796881 9.20715 0.79769 9.52284C0.797044 9.83959 0.90989 10.1367 1.11554 10.3589Z" fill="currentColor"/>
</svg>
