<svg width="42" height="42" viewBox="0 0 42 42" fill="none" xmlns="http://www.w3.org/2000/svg">
<path d="M20.986 41.9991C20.8477 41.9991 20.7078 41.9659 20.5817 41.8994L0.47075 31.3994C0.182 31.2489 0 30.9496 0 30.6241V10.9366C0 10.6339 0.1575 10.3521 0.41475 10.1929C0.672 10.0336 0.99575 10.0196 1.26525 10.1544L21.3763 20.2169C21.672 20.3656 21.8593 20.6684 21.8593 20.9991V41.1241C21.8593 41.4304 21.7 41.7139 21.4375 41.8731C21.301 41.9571 21.1435 41.9991 20.986 41.9991ZM1.75 30.0939L20.111 39.6804V21.5399L1.75 12.3524V30.0939Z" fill="white"/>
<path d="M21.0156 42.0004C20.8581 42.0004 20.7006 41.9584 20.5624 41.8744C20.3016 41.7152 20.1406 41.4317 20.1406 41.1254V21.0004C20.1406 20.6697 20.3279 20.3669 20.6236 20.2182L40.7346 10.1557C41.0024 10.0192 41.3279 10.0332 41.5851 10.1942C41.8441 10.3534 42.0016 10.6352 42.0016 10.9379V30.6254C42.0016 30.9509 41.8196 31.2502 41.5309 31.4007L21.4199 41.9007C21.2939 41.9672 21.1539 42.0004 21.0156 42.0004ZM21.8906 21.5412V39.6817L40.2516 30.0952V12.3537L21.8906 21.5412ZM41.1266 30.6254H41.1441H41.1266Z" fill="white"/>
<path d="M0.876819 11.8116C0.554819 11.8116 0.246819 11.6349 0.0928188 11.3286C-0.124181 10.8964 0.0525688 10.3714 0.484819 10.1544L20.6238 0.091875C20.8706 -0.030625 21.1611 -0.030625 21.4061 0.091875L41.5171 10.1544C41.9493 10.3714 42.1243 10.8964 41.9091 11.3286C41.6921 11.7609 41.1688 11.9341 40.7348 11.7206L21.0158 1.85238L1.26882 11.7189C1.14282 11.7819 1.00982 11.8116 0.876819 11.8116Z" fill="white"/>
<path d="M31.5021 26.2503C31.0191 26.2503 30.6271 25.8583 30.6271 25.3753V16.291L10.9991 6.47003C10.5668 6.25478 10.3918 5.72803 10.6088 5.29578C10.8258 4.86353 11.3508 4.69028 11.7831 4.90378L31.8941 14.9663C32.1898 15.1168 32.3771 15.4195 32.3771 15.7503V25.3753C32.3771 25.8583 31.9851 26.2503 31.5021 26.2503Z" fill="white"/>
</svg>
