<svg width="46" height="40" viewBox="0 0 46 40" fill="none" xmlns="http://www.w3.org/2000/svg">
<path d="M45.4494 13.0102L11.5906 0.466099C11.1575 0.306064 10.6763 0.527515 10.5166 0.960942C10.5163 0.961293 10.5163 0.961644 10.5159 0.961995L6.76777 11.1645C6.60844 11.598 6.83059 12.0788 7.26402 12.2381H7.26472L11.1894 13.6791L10.3247 16.0351C10.1657 16.4685 10.3878 16.9486 10.8213 17.1079L18.6721 19.9903L18.0951 21.5608C17.5708 22.9674 18.06 24.5509 19.287 25.416V29.6836H8.03471C7.49003 28.4384 6.37541 27.5344 5.04424 27.2585V25.5024C5.04424 25.0405 4.67013 24.666 4.20792 24.666H0.83632C0.374466 24.666 0 25.0405 0 25.5024V38.8824C0 39.3446 0.374466 39.7187 0.83632 39.7187H4.20792C4.67013 39.7187 5.04424 39.3446 5.04424 38.8824V37.1266C6.37541 36.8504 7.49003 35.9467 8.03471 34.7012H19.287V35.5375C19.287 36.9231 20.41 38.0465 21.7956 38.0465C23.1811 38.0465 24.3045 36.9231 24.3045 35.5375V26.2734C25.0647 25.8965 25.6518 25.2427 25.9445 24.446L26.5215 22.8755L33.5869 25.468C33.6792 25.502 33.7764 25.5192 33.8746 25.5192C34.2253 25.5192 34.539 25.3006 34.6601 24.9714L34.9735 24.1175C37.6948 24.6295 40.3157 22.8386 40.8274 20.1177C41.0165 19.1122 40.8937 18.073 40.4754 17.1395L45.5449 14.5365C45.9558 14.3259 46.1183 13.822 45.9078 13.411C45.8123 13.2243 45.6502 13.0804 45.4536 13.0077L45.4494 13.0102ZM20.9592 26.1779L21.6517 26.4289C21.9668 26.5419 22.2974 26.6068 22.6319 26.6212V29.6836H20.9592V26.1779ZM3.37195 38.0465H1.67264V26.3387H3.37195V38.0465ZM6.71688 33.0289C6.71548 34.0916 6.04586 35.0388 5.04424 35.3947V28.9905C6.04586 29.346 6.71548 30.2932 6.71688 31.3562V33.0289ZM8.41549 31.3562H22.6319V33.0289H8.41549V31.3562ZM21.7956 36.3738C21.3337 36.3738 20.9592 35.9993 20.9592 35.5375V34.7012H22.6319V35.5375C22.6319 35.9993 22.2574 36.3738 21.7956 36.3738ZM24.9517 22.2996L24.3747 23.8701C24.056 24.7362 23.0955 25.1805 22.2286 24.8626L20.6557 24.2863C19.7888 23.968 19.3438 23.0071 19.6621 22.1399C19.6621 22.1399 19.6621 22.1399 19.6621 22.1395L20.2394 20.5701L24.4782 22.1262L24.9517 22.2996ZM33.3788 23.6125L12.1826 15.8291L12.7599 14.2585L25.3198 18.8708C25.6171 18.9788 25.9505 18.9111 26.1818 18.6949L28.5286 16.4857L35.1082 18.9023L33.3788 23.6125ZM39.033 20.3441C38.503 21.7728 37.0778 22.6656 35.5613 22.5186L36.8535 18.9985L38.9642 17.9116C39.2944 18.6844 39.319 19.5541 39.033 20.3441ZM36.2102 17.4526C36.166 17.4564 36.1222 17.4641 36.079 17.4757L28.623 14.7379C28.3257 14.6288 27.9923 14.6965 27.7614 14.9134L25.4118 17.123L8.62606 10.9589L11.7966 2.32615L43.0861 13.9185L36.2102 17.4526Z" fill="white"/>
<path d="M15.4805 11.6942L16.0567 10.124L17.6269 10.7006L17.0503 12.2708L15.4805 11.6942Z" fill="white"/>
<path d="M18.6211 12.8475L19.1974 11.2773L20.7675 11.854L20.1909 13.4238L18.6211 12.8475Z" fill="white"/>
<path d="M21.7617 14.0008L22.3383 12.4307L23.9081 13.0073L23.3315 14.5774L21.7617 14.0008Z" fill="white"/>
</svg>
