<svg width="37" height="45" viewBox="0 0 37 45" fill="none" xmlns="http://www.w3.org/2000/svg">
<path d="M2.34375 37.1873V40.1248H0.875V44.531H36.125V40.1248H34.6562V37.1873H33.8903L33.2139 21.6222C33.6358 21.467 34 21.1864 34.2579 20.8182C34.5157 20.45 34.6547 20.0118 34.6562 19.5623V16.6248C34.6541 16.1654 34.5084 15.7181 34.2395 15.3456C33.9706 14.9731 33.592 14.6939 33.1567 14.5472C33.005 10.7616 31.3946 7.18144 28.6625 4.5566C25.9304 1.93175 22.2887 0.46582 18.5 0.46582C14.7113 0.46582 11.0696 1.93175 8.33753 4.5566C5.60545 7.18144 3.99496 10.7616 3.84334 14.5472C3.40797 14.6939 3.02936 14.9731 2.76047 15.3456C2.49159 15.7181 2.34588 16.1654 2.34375 16.6248V19.5623C2.34537 20.0119 2.48449 20.4502 2.74244 20.8184C3.00039 21.1866 3.36482 21.4671 3.7868 21.6222L3.1097 37.1873H2.34375ZM33.1875 16.6248V19.5623C33.1875 19.757 33.1101 19.9438 32.9724 20.0816C32.8347 20.2193 32.6479 20.2966 32.4531 20.2966H29.5156C29.3209 20.2966 29.1341 20.2193 28.9963 20.0816C28.8586 19.9438 28.7812 19.757 28.7812 19.5623V16.6248C28.7812 16.43 28.8586 16.2432 28.9963 16.1055C29.1341 15.9678 29.3209 15.8904 29.5156 15.8904H32.4531C32.6479 15.8904 32.8347 15.9678 32.9724 16.1055C33.1101 16.2432 33.1875 16.43 33.1875 16.6248ZM33.1875 38.656V40.1248H28.7812V38.656H33.1875ZM29.5479 37.1873L30.2184 21.7654H31.7503L32.4208 37.1873H29.5479ZM18.5 1.93727C21.8776 1.9412 25.1259 3.23625 27.5797 5.55723C30.0336 7.87821 31.5072 11.0495 31.6989 14.4216H30.2302C30.0442 11.4377 28.7277 8.63689 26.5488 6.58965C24.37 4.54241 21.4927 3.40273 18.5029 3.40273C15.5132 3.40273 12.6359 4.54241 10.4571 6.58965C8.27822 8.63689 6.96172 11.4377 6.7757 14.4216H5.30695C5.49861 11.0505 6.97144 7.88007 9.42401 5.55925C11.8766 3.23842 15.1234 1.9427 18.5 1.93727ZM8.92155 37.1873L8.24519 21.6222C8.66703 21.467 9.0313 21.1864 9.28911 20.8182C9.54692 20.45 9.68594 20.0118 9.6875 19.5623V16.6248C9.68547 16.1763 9.54664 15.7392 9.28957 15.3718C9.0325 15.0044 8.66943 14.7241 8.24886 14.5685C8.39597 11.9493 9.54011 9.48567 11.4464 7.68342C13.3527 5.88117 15.8766 4.87699 18.5 4.87699C21.1234 4.87699 23.6473 5.88117 25.5536 7.68342C27.4599 9.48567 28.604 11.9493 28.7511 14.5685C28.3306 14.7241 27.9675 15.0044 27.7104 15.3718C27.4534 15.7392 27.3145 16.1763 27.3125 16.6248V19.5623C27.3141 20.0119 27.4532 20.4502 27.7112 20.8184C27.9691 21.1866 28.3336 21.4671 28.7555 21.6222L28.0785 37.1873H27.3125V40.1248H9.6875V37.1873H8.92155ZM3.8125 16.6248C3.8125 16.43 3.88987 16.2432 4.02759 16.1055C4.16532 15.9678 4.35211 15.8904 4.54688 15.8904H7.48438C7.67914 15.8904 7.86593 15.9678 8.00366 16.1055C8.14138 16.2432 8.21875 16.43 8.21875 16.6248V19.5623C8.21875 19.757 8.14138 19.9438 8.00366 20.0816C7.86593 20.2193 7.67914 20.2966 7.48438 20.2966H4.54688C4.35211 20.2966 4.16532 20.2193 4.02759 20.0816C3.88987 19.9438 3.8125 19.757 3.8125 19.5623V16.6248ZM7.45206 37.1873H4.57919L5.24967 21.7654H6.78158L7.45206 37.1873ZM3.8125 38.656H8.21875V40.1248H3.8125V38.656ZM34.6562 41.5935V43.0623H2.34375V41.5935H34.6562Z" fill="white"/>
</svg>
