<svg width="38" height="44" viewBox="0 0 38 44" fill="none" xmlns="http://www.w3.org/2000/svg">
<path d="M14.8871 20.6356C14.8873 20.0341 14.7201 19.4444 14.4042 18.9325C14.0884 18.4206 13.6364 18.0066 13.0987 17.7369C12.5611 17.4671 11.959 17.3523 11.3598 17.4051C10.7606 17.458 10.188 17.6765 9.70586 18.0362C9.22374 18.3958 8.85119 18.8826 8.62984 19.4419C8.4085 20.0012 8.34711 20.611 8.45253 21.2032C8.55794 21.7954 8.82601 22.3466 9.22676 22.7952C9.62751 23.2438 10.1451 23.572 10.7218 23.7432V27.1159C10.7218 27.3607 10.819 27.5955 10.9921 27.7686C11.1652 27.9417 11.4 28.039 11.6448 28.039C11.8897 28.039 12.1244 27.9417 12.2975 27.7686C12.4707 27.5955 12.5679 27.3607 12.5679 27.1159V23.7432C13.2373 23.5436 13.8245 23.1334 14.2423 22.5736C14.6601 22.0138 14.8862 21.3341 14.8871 20.6356ZM11.6448 22.0318C11.3687 22.0318 11.0987 21.9499 10.8691 21.7965C10.6395 21.6431 10.4605 21.425 10.3548 21.1699C10.2491 20.9147 10.2215 20.634 10.2753 20.3631C10.3292 20.0923 10.4622 19.8435 10.6574 19.6482C10.8527 19.4529 11.1015 19.32 11.3724 19.2661C11.6432 19.2122 11.924 19.2399 12.1791 19.3456C12.4342 19.4513 12.6523 19.6302 12.8057 19.8599C12.9591 20.0895 13.041 20.3594 13.041 20.6356C13.0406 21.0058 12.8933 21.3606 12.6316 21.6223C12.3698 21.8841 12.015 22.0313 11.6448 22.0318Z" fill="white"/>
<path d="M24.9189 37.8604C24.7895 37.8604 24.6616 37.8332 24.5434 37.7806C24.4252 37.7279 24.3193 37.6511 24.2328 37.5549L22.1415 35.2312C21.9803 35.0489 21.8978 34.8102 21.9117 34.5673C21.9256 34.3244 22.0348 34.0967 22.2157 33.934C22.3966 33.7712 22.6344 33.6864 22.8775 33.698C23.1205 33.7097 23.3492 33.8169 23.5136 33.9962L24.896 35.5322L31.068 28.2096C31.1457 28.1159 31.2413 28.0385 31.3492 27.9818C31.457 27.9252 31.575 27.8905 31.6963 27.8796C31.8177 27.8688 31.94 27.8821 32.0561 27.9188C32.1723 27.9554 32.2801 28.0147 32.3732 28.0932C32.4664 28.1717 32.5431 28.2679 32.5989 28.3761C32.6547 28.4844 32.6885 28.6027 32.6984 28.7241C32.7083 28.8455 32.694 28.9677 32.6565 29.0836C32.619 29.1995 32.5588 29.3068 32.4796 29.3993L25.6247 37.5323C25.5397 37.6331 25.434 37.7146 25.3149 37.7712C25.1957 37.8278 25.0658 37.8582 24.9339 37.8603L24.9189 37.8604Z" fill="white"/>
<path d="M27.2993 22.7173C25.7164 22.7155 24.1552 23.0861 22.742 23.7992V15.5295C22.7412 14.8063 22.4535 14.113 21.9422 13.6017C21.4308 13.0903 20.7375 12.8027 20.0144 12.802H17.8947V7.22583C17.8947 5.56816 17.2362 3.97839 16.0641 2.80624C14.8919 1.63409 13.3021 0.975586 11.6445 0.975586C9.98681 0.975586 8.39703 1.63409 7.22488 2.80624C6.05274 3.97839 5.39423 5.56816 5.39423 7.22583V12.8019H3.27448C2.55132 12.8027 1.85801 13.0903 1.34666 13.6016C0.835311 14.113 0.547681 14.8063 0.546875 15.5295V30.8821C0.54773 31.6052 0.835379 32.2985 1.34672 32.8098C1.85806 33.3211 2.55134 33.6087 3.27448 33.6096H17.1723C17.3161 35.5811 18.0322 37.4678 19.2328 39.0382C20.4335 40.6086 22.0664 41.7944 23.9313 42.4501C25.7961 43.1058 27.8118 43.2029 29.7311 42.7295C31.6503 42.256 33.3897 41.2327 34.7357 39.7849C36.0817 38.3372 36.9758 36.528 37.3084 34.5794C37.641 32.6308 37.3975 30.6275 36.6079 28.8153C35.8183 27.0031 34.5169 25.4607 32.8634 24.3775C31.2098 23.2943 29.276 22.7173 27.2992 22.7173H27.2993ZM7.24001 7.22583C7.24001 6.05779 7.70402 4.9376 8.52994 4.11167C9.35587 3.28574 10.4761 2.82174 11.6441 2.82174C12.8121 2.82174 13.9323 3.28574 14.7583 4.11167C15.5842 4.9376 16.0482 6.05779 16.0482 7.22583V12.8019H7.24001V7.22583ZM2.39303 30.882V15.5295C2.3933 15.2958 2.48625 15.0717 2.6515 14.9065C2.81675 14.7413 3.04079 14.6484 3.27448 14.6481H20.0144C20.2481 14.6484 20.4721 14.7413 20.6374 14.9065C20.8026 15.0717 20.8956 15.2958 20.8958 15.5295V24.9972C18.8241 26.6796 17.4985 29.1105 17.2061 31.7633H3.27448C3.0408 31.7631 2.81677 31.6701 2.65153 31.5049C2.48629 31.3397 2.39332 31.1157 2.39303 30.882ZM27.2993 41.1788C25.6562 41.1788 24.05 40.6916 22.6838 39.7787C21.3176 38.8658 20.2528 37.5684 19.624 36.0503C18.9952 34.5323 18.8307 32.8619 19.1512 31.2504C19.4718 29.6388 20.263 28.1585 21.4249 26.9967C22.5867 25.8348 24.067 25.0436 25.6786 24.7231C27.2901 24.4025 28.9605 24.567 30.4785 25.1958C31.9966 25.8246 33.294 26.8894 34.2069 28.2556C35.1198 29.6218 35.607 31.228 35.607 32.8711C35.6046 35.0737 34.7285 37.1854 33.171 38.7428C31.6136 40.3003 29.5019 41.1764 27.2993 41.1788Z" fill="white"/>
</svg>
