<svg width="32" height="42" viewBox="0 0 32 42" fill="none" xmlns="http://www.w3.org/2000/svg">
<path d="M27.1261 17.8614V11.2101C27.1439 8.20055 25.9418 5.30676 23.796 3.19652C21.7214 1.1308 19.0057 0 16.1297 0C16.0852 0 16.0317 0 15.9872 0C9.85238 0.00890396 4.86616 5.03074 4.86616 11.2101V17.8614C2.55113 18.1374 0.859375 20.0784 0.859375 22.4291V37.3699C0.859375 39.9076 2.88948 42 5.42711 42H26.574C29.1117 42 31.1418 39.9076 31.1418 37.3699V22.4291C31.1329 20.0873 29.4411 18.1374 27.1261 17.8614ZM6.63805 11.2101H6.64695C6.64695 6.01018 10.8407 1.75408 15.9961 1.75408H16.005C18.4536 1.74518 20.8043 2.71571 22.5405 4.44308C24.348 6.23277 25.3542 8.67246 25.3364 11.2101V17.8703H23.3775V11.2101C23.3953 9.18889 22.594 7.24783 21.1604 5.82319C19.807 4.46979 17.9728 3.70405 16.0584 3.70405H16.005C11.9092 3.70405 8.59692 7.06975 8.59692 11.2012V17.8703H6.63805V11.2101ZM21.6056 11.2101V17.8703H10.3866V11.2101C10.3866 8.05809 12.8975 5.49375 16.0139 5.49375H16.0673C17.5098 5.49375 18.8988 6.0725 19.9228 7.09646C21.009 8.18274 21.6234 9.66971 21.6056 11.2101ZM29.4411 37.3966C29.4411 38.9548 28.1767 40.2192 26.6185 40.2192H5.46272C3.90453 40.2192 2.64017 38.9548 2.64017 37.3966V22.4736C2.64017 20.9154 3.90453 19.651 5.46272 19.651H26.6185C28.1767 19.651 29.4411 20.9154 29.4411 22.4736V37.3966Z" fill="white"/>
<path d="M19.0763 29.3825C18.6846 28.0024 17.4291 27.0586 15.9956 27.0586C14.2237 27.0586 12.7812 28.4921 12.7812 30.2729C12.7812 31.7065 13.7251 32.9619 15.1052 33.3537V35.8468C15.1052 36.3365 15.5059 36.7372 15.9956 36.7372C16.4853 36.7372 16.886 36.3365 16.886 35.8468V33.3537C18.5866 32.864 19.575 31.0832 19.0763 29.3825ZM15.9956 31.6976C15.2031 31.6976 14.562 31.0565 14.562 30.264C14.562 29.4716 15.2031 28.8305 15.9956 28.8305C16.788 28.8305 17.4291 29.4716 17.4291 30.264C17.4291 31.0565 16.788 31.6976 15.9956 31.6976Z" fill="white"/>
</svg>
