<svg width="46" height="46" viewBox="0 0 46 46" fill="none" xmlns="http://www.w3.org/2000/svg">
<path d="M45.9833 37.8602C45.9005 37.1022 45.5215 36.425 44.9162 35.9559L36.0515 29.1041C34.5446 27.9412 32.5115 27.8032 30.8666 28.7545L29.2364 29.6965C28.2428 30.2687 27.0138 30.1933 26.1048 29.4904C24.7875 28.4766 22.8206 26.8722 20.9383 24.9881C19.0708 23.1187 17.4958 21.1887 16.5041 19.8989C15.8086 18.9956 15.7314 17.7683 16.3054 16.7729L17.2474 15.1391C18.1987 13.4905 18.0624 11.4537 16.8996 9.95233L10.0459 1.08761C9.57875 0.482338 8.90538 0.10338 8.14548 0.0187481C7.38559 -0.0695676 6.64412 0.156747 6.05717 0.642439C4.55212 1.88434 2.61834 3.50717 1.94685 4.18055C0.585281 5.54212 0.00390625 7.32505 0.00390625 10.1475C0.00390625 13.4391 6.04621 25.6819 13.323 32.6551C20.3202 39.9595 32.563 46.0001 35.8583 46.0001C38.6789 46.0001 40.4618 45.4187 41.8196 44.0571C42.5464 43.3322 44.3495 41.1685 45.3578 39.9468C45.8453 39.3579 46.0661 38.6182 45.9833 37.8602ZM43.941 38.7746C42.2575 40.815 41.0119 42.2667 40.5206 42.758C39.7939 43.4866 38.7248 44.16 35.8564 44.16C33.3302 44.16 21.4627 38.4949 14.622 31.3542C7.51074 24.5374 1.8438 12.6736 1.8438 10.1475C1.8438 7.27905 2.51718 6.2101 3.24769 5.48147C3.73338 4.99569 5.14652 3.78137 7.22926 2.06106C7.40221 1.91758 7.61379 1.84211 7.83463 1.84211C7.86958 1.84211 7.90641 1.844 7.94136 1.84759C8.20083 1.87706 8.43083 2.00581 8.59084 2.2137L15.4445 11.0765C16.1474 11.9873 16.2302 13.22 15.6543 14.2191L14.7123 15.8529C13.7647 17.494 13.8953 19.5235 15.0453 21.0194C16.0702 22.3533 17.6985 24.3496 19.6378 26.2889C21.5899 28.241 23.623 29.9024 24.9827 30.9475C26.4767 32.103 28.5098 32.2428 30.1565 31.2916C30.1565 31.2897 30.1565 31.2897 30.1565 31.2897L31.7867 30.3477C32.784 29.7718 34.0185 29.8582 34.9274 30.5612L43.7903 37.4112C43.9964 37.5713 44.1251 37.803 44.1546 38.0625C44.1839 38.322 44.1084 38.5741 43.941 38.7746Z" fill="#B7CEE3"/>
<path d="M31.9266 3.62467C36.795 5.40204 40.6037 9.21066 42.3791 14.0791C42.5153 14.4526 42.8685 14.6844 43.2439 14.6844C43.3487 14.6844 43.4537 14.666 43.5567 14.6274C44.0351 14.4526 44.2817 13.9263 44.1068 13.448C42.1474 8.06993 37.9376 3.85845 32.5559 1.89708C32.0849 1.72413 31.5513 1.97066 31.3765 2.44539C31.2017 2.92183 31.4483 3.44984 31.9266 3.62467Z" fill="#B7CEE3"/>
<path d="M29.4057 10.5453C32.1913 11.5518 34.4526 13.8148 35.4572 16.5986C35.5952 16.974 35.9466 17.2058 36.3238 17.2058C36.4287 17.2058 36.5336 17.1892 36.6366 17.1524C37.115 16.9794 37.3633 16.4532 37.1904 15.9748C35.9999 12.6832 33.3247 10.0062 30.0312 8.81577C29.5565 8.64093 29.0266 8.88935 28.8519 9.36776C28.679 9.84618 28.9274 10.3724 29.4057 10.5453Z" fill="#B7CEE3"/>
<path d="M26.8889 17.4627C27.6598 17.7387 28.2633 18.3422 28.5393 19.1149C28.6755 19.4921 29.0288 19.7258 29.4059 19.7258C29.5071 19.7258 29.612 19.7093 29.715 19.6706C30.1952 19.4995 30.4436 18.9733 30.2725 18.4949C29.8107 17.2015 28.8024 16.1932 27.5071 15.7314C27.0306 15.5584 26.5044 15.8105 26.3314 16.287C26.1603 16.7654 26.4087 17.2916 26.8889 17.4627Z" fill="#B7CEE3"/>
</svg>
