<svg width="48" height="54" viewBox="0 0 48 54" fill="none" xmlns="http://www.w3.org/2000/svg">
<path d="M39.6882 34.9716L32.0596 32.2288C30.8596 31.9716 29.0596 30.6002 29.0596 29.6573V28.1145C32.0596 25.3716 34.1167 20.5716 34.8025 16.7145C34.8025 16.7145 36.6025 16.8859 36.7739 15.0002V14.1431C36.7739 13.2002 36.0025 12.3431 35.6596 12.0002C34.9739 8.48591 33.0882 5.48591 30.431 3.51448C30.0882 3.25734 29.7453 2.82877 29.4882 2.31448C29.0596 1.45734 28.4596 1.2002 27.9453 1.02877C25.3739 0.257338 22.631 0.257338 20.0596 1.02877C19.5453 1.2002 18.9453 1.45734 18.5167 2.31448C18.2596 2.74305 17.9167 3.17162 17.5739 3.42877C14.9167 5.4002 13.031 8.48591 12.3453 11.9145C11.9167 12.3431 11.231 13.1145 11.231 14.0573V14.9145C11.3167 16.8002 13.2025 16.6288 13.2025 16.6288C13.8882 20.4859 15.9453 25.2859 18.9453 28.0288V29.5716C18.9453 30.5145 17.231 31.8859 15.9453 32.1431L8.31674 34.8859C3.8596 36.5145 0.945312 40.7145 0.945312 45.4288V53.5716H47.1453V45.4288C47.0596 40.7145 44.1453 36.5145 39.6882 34.9716ZM38.5739 51.8573H9.43103V45.7716H38.4882V51.8573H38.5739ZM12.0025 44.0573V35.4002L13.7167 34.8002V44.0573H12.0025ZM34.2882 44.0573V34.8002L36.0025 35.4002V44.0573H34.2882ZM12.8596 14.1431C12.8596 13.8859 13.2882 13.3716 13.631 13.1145L13.8882 12.9431C13.8882 12.9431 14.5739 7.71448 18.5167 4.88591C19.1167 4.45734 19.631 3.85734 19.9739 3.08591C20.0596 2.82877 20.231 2.74305 20.4882 2.65734C23.231 1.8002 26.231 2.31448 27.431 2.65734C27.6882 2.74305 27.7739 2.82877 27.9453 3.08591C28.3739 3.85734 28.8882 4.45734 29.4025 4.88591C33.6882 8.31448 34.031 12.8573 34.031 12.8573L34.2882 13.0288C34.631 13.3716 35.0596 13.8859 35.0596 14.1431V15.0002H12.7739V14.1431H12.8596ZM14.831 16.7145H33.0882C32.0596 21.9431 28.2882 28.7145 23.9167 28.7145C19.631 28.6288 15.8596 21.8573 14.831 16.7145ZM24.0025 30.3431C25.2025 30.3431 26.3167 30.0002 27.431 29.3145V29.5716C27.431 30.5145 27.9453 31.3716 28.7167 32.1431L27.0882 33.7716H20.9167L19.2882 32.1431C20.0596 31.4573 20.5739 30.5145 20.5739 29.6573V29.4002C21.6025 30.0002 22.8025 30.3431 24.0025 30.3431ZM17.9167 33.1716L20.231 35.4859H27.7739L30.0882 33.1716C30.6025 33.5145 32.5739 34.1145 32.5739 34.1145V43.9716H15.431V34.2002C15.431 34.2002 17.4025 33.5145 17.9167 33.1716ZM2.6596 45.4288C2.6596 41.4859 5.14531 37.8859 8.91674 36.6002L10.3739 36.0859V44.1431H7.80246V51.9431H2.6596V45.4288ZM45.3453 51.8573H40.2025V44.0573H37.631V36.0002L39.0882 36.5145C42.8596 37.8859 45.3453 41.4002 45.3453 45.3431V51.8573Z" fill="#B7CEE3"/>
<path d="M11.1445 47.4854H14.5731V49.1996H11.1445V47.4854Z" fill="#B7CEE3"/>
<path d="M33.4336 47.4854H36.8622V49.1996H33.4336V47.4854Z" fill="#B7CEE3"/>
</svg>
