<svg width="57" height="43" viewBox="0 0 57 43" fill="none" xmlns="http://www.w3.org/2000/svg">
<path d="M46.1455 13.9883H42.5569L43.6381 1.57421C43.6401 1.55172 43.6405 1.52957 43.6406 1.50741C43.6406 1.50552 43.6408 1.50374 43.6408 1.50185C43.6408 1.50151 43.6408 1.50129 43.6408 1.50095C43.6408 1.16307 43.437 0.865269 43.1374 0.735794C43.1348 0.73468 43.1324 0.733345 43.1298 0.732231C43.1112 0.724438 43.0919 0.717758 43.0726 0.711301C43.0653 0.708963 43.0584 0.706069 43.0512 0.703842C43.0354 0.699055 43.0191 0.69527 43.003 0.691373C42.9916 0.688701 42.9807 0.685473 42.9693 0.683247C42.9551 0.680463 42.9404 0.678682 42.926 0.676567C42.9124 0.674563 42.899 0.672225 42.8853 0.671C42.883 0.670778 42.8809 0.670332 42.8785 0.670109C42.8638 0.668773 42.8494 0.668996 42.8348 0.66844C42.825 0.668106 42.8154 0.666992 42.8056 0.666992H42.7951C42.7943 0.666992 42.7934 0.666992 42.7926 0.666992H25.718C25.2571 0.666992 24.883 1.04106 24.883 1.50196C24.883 1.96174 25.2571 2.33692 25.718 2.33692H41.8955L40.2338 21.4159C40.2336 21.4173 40.2336 21.4187 40.2334 21.4202L39.8141 26.2342H10.8009L11.2862 21.2246H16.8104C17.2716 21.2246 17.6454 20.8507 17.6454 20.3896C17.6454 19.9285 17.2716 19.5547 16.8104 19.5547H11.448L12.4727 8.97901H21.2649C21.7261 8.97901 22.0998 8.60517 22.0998 8.14404C22.0998 7.68292 21.7261 7.30908 21.2649 7.30908H12.6346L13.1164 2.33692H22.3782C22.8379 2.33692 23.2131 1.96174 23.2131 1.50196C23.2131 1.04106 22.8379 0.666992 22.3782 0.666992H12.3586C12.3581 0.666992 12.3578 0.667103 12.3574 0.667103C11.9651 0.666992 11.6249 0.943088 11.5427 1.32584C11.5421 1.32862 11.5411 1.33129 11.5405 1.33407C11.5363 1.35489 11.5335 1.37616 11.5307 1.39753C11.53 1.40432 11.5285 1.41078 11.5279 1.41757C11.5277 1.41891 11.5274 1.42013 11.5273 1.42147L10.9568 7.30908H0.834964C0.37373 7.30908 0 7.68292 0 8.14404C0 8.60517 0.37373 8.97901 0.834964 8.97901H10.795L9.77031 19.5547H6.79127C6.33003 19.5547 5.9563 19.9285 5.9563 20.3896C5.9563 20.8507 6.33003 21.2246 6.79127 21.2246H9.60855L9.05057 26.9826C9.05046 26.9835 9.05046 26.9844 9.05034 26.9852L8.18766 35.8891C8.18755 35.8901 8.18744 35.8912 8.18733 35.8921L8.18699 35.8954C8.18588 35.9069 8.18599 35.9183 8.18532 35.9299C8.18454 35.9452 8.18298 35.9603 8.18298 35.9758C8.18298 35.9765 8.18309 35.9772 8.18309 35.978C8.18309 35.9994 8.18465 36.0206 8.18621 36.0418C8.18688 36.0485 8.18666 36.0554 8.18744 36.0621C8.18966 36.0837 8.19334 36.105 8.19723 36.1261C8.19835 36.1324 8.1989 36.1387 8.20013 36.1448C8.20336 36.1609 8.20792 36.1763 8.21215 36.192C8.21505 36.2031 8.21738 36.2143 8.22072 36.2251C8.22173 36.2281 8.22306 36.231 8.22395 36.2341C8.26437 36.3584 8.33294 36.4699 8.42245 36.561C8.42412 36.5627 8.42546 36.5646 8.42713 36.5661C8.43603 36.575 8.44572 36.583 8.45507 36.5915C8.51263 36.6443 8.57764 36.689 8.64878 36.7241C8.66359 36.7314 8.67817 36.7391 8.69331 36.7455C8.69788 36.7475 8.70278 36.7488 8.70745 36.7506C8.72838 36.7589 8.74942 36.7669 8.77113 36.7737C8.77314 36.7743 8.77503 36.7746 8.77703 36.7753C8.80175 36.7826 8.82668 36.7891 8.85218 36.7943C8.85552 36.795 8.85897 36.7952 8.8622 36.7959C8.88647 36.8005 8.91085 36.8044 8.93568 36.8068C8.93623 36.8068 8.93668 36.8069 8.93723 36.807C8.96462 36.8097 8.99179 36.811 9.01873 36.811C9.01906 36.811 9.01951 36.8109 9.01995 36.8109H12.737C13.1475 39.9229 15.8154 42.3332 19.0379 42.3332C22.26 42.3332 24.928 39.9229 25.3385 36.8109H38.7312C39.1418 39.9229 41.8097 42.3332 45.032 42.3332C48.2541 42.3332 50.9224 39.9229 51.3329 36.8109H55.0509C55.0514 36.8109 55.0521 36.811 55.0526 36.811C55.0805 36.811 55.1079 36.8094 55.135 36.8067C55.1399 36.8062 55.1446 36.8052 55.1495 36.8047C55.1712 36.8021 55.1928 36.7991 55.214 36.7949C55.2231 36.7931 55.2319 36.7907 55.2409 36.7885C55.2573 36.7848 55.2737 36.7808 55.2898 36.776C55.3007 36.7727 55.3113 36.769 55.3219 36.7653C55.3356 36.7606 55.3493 36.7557 55.3628 36.7502C55.3744 36.7457 55.3854 36.7407 55.3966 36.7357C55.4089 36.73 55.4211 36.7242 55.4331 36.7181C55.4444 36.7123 55.4553 36.7063 55.4662 36.7C55.4777 36.6934 55.4891 36.6865 55.5003 36.6793C55.5108 36.6726 55.5212 36.6659 55.5312 36.6587C55.5426 36.6508 55.5534 36.6425 55.5644 36.634C55.5735 36.6268 55.5828 36.6197 55.5917 36.6121C55.6032 36.6024 55.614 36.5923 55.6249 36.5819C55.6324 36.5747 55.6403 36.5676 55.6477 36.56C55.6593 36.5482 55.6703 36.5357 55.6813 36.5231C55.6872 36.5163 55.6933 36.5098 55.699 36.5029C55.7113 36.4877 55.7224 36.4721 55.7335 36.4564C55.7373 36.451 55.7415 36.4459 55.7452 36.4403C55.7588 36.4199 55.7716 36.399 55.7834 36.3774C55.7843 36.3761 55.7852 36.3748 55.7857 36.3734C55.7983 36.3502 55.8099 36.3265 55.8203 36.302C55.8231 36.295 55.8254 36.2878 55.8282 36.2808C55.8349 36.2635 55.8416 36.2463 55.8473 36.2283C55.851 36.2168 55.8537 36.2048 55.8569 36.1932C55.8606 36.1792 55.8644 36.1654 55.8676 36.1513C55.8703 36.1387 55.8721 36.1258 55.8742 36.113C55.8761 36.1018 55.8786 36.0907 55.88 36.0793C55.9154 35.7956 56.5693 30.5499 56.8613 27.158C56.8616 27.1547 56.8617 27.1514 56.8621 27.1482C56.9461 26.1704 57 25.347 57 24.8429C57 18.8577 52.1307 13.9883 46.1455 13.9883ZM42.4114 15.6585H45.8273L45.391 20.6678H41.9751L42.4114 15.6585ZM19.0381 40.6631C16.4534 40.6631 14.3506 38.5603 14.3506 35.9757C14.3506 33.3911 16.4535 31.2884 19.0381 31.2884C21.6227 31.2884 23.7255 33.3911 23.7255 35.9757C23.7255 38.5603 21.6227 40.6631 19.0381 40.6631ZM45.032 40.6631C42.4474 40.6631 40.3447 38.5603 40.3447 35.9757C40.3447 33.3911 42.4475 31.2884 45.032 31.2884C47.6167 31.2884 49.7194 33.3911 49.7194 35.9757C49.7194 38.5603 47.6167 40.6631 45.032 40.6631ZM54.3131 35.1404H51.3332C50.9228 32.0282 48.2547 29.6179 45.0322 29.6179C41.8099 29.6179 39.1418 32.0284 38.7314 35.1404H25.3388C24.9285 32.0282 22.2605 29.6179 19.0381 29.6179C15.8157 29.6179 13.1475 32.0284 12.7371 35.1404H9.93786L10.6391 27.9036H40.5793V27.9041C40.5797 27.9041 40.58 27.9041 40.5805 27.9041C40.6084 27.9041 40.6362 27.9025 40.6635 27.8997C40.6687 27.8993 40.6737 27.8982 40.6788 27.8975C40.7006 27.895 40.7223 27.8918 40.7437 27.8876C40.7529 27.8857 40.762 27.8832 40.7711 27.8809C40.7878 27.8769 40.8045 27.873 40.8207 27.8681C40.8319 27.8648 40.8424 27.8608 40.8532 27.857C40.8673 27.8521 40.8813 27.8473 40.8949 27.8417C40.9066 27.837 40.9178 27.8316 40.9292 27.8263C40.9415 27.8206 40.9539 27.8149 40.9658 27.8087C40.9771 27.8027 40.9883 27.7962 40.9995 27.7897C41.011 27.7831 41.0223 27.7763 41.0335 27.7691C41.0443 27.7621 41.0545 27.7548 41.0649 27.7474C41.0759 27.7396 41.0866 27.7316 41.0973 27.7233C41.1068 27.7156 41.1163 27.7077 41.1257 27.6996C41.1362 27.6904 41.1466 27.6811 41.1566 27.6714C41.1651 27.6633 41.1735 27.6549 41.1818 27.6464C41.1918 27.6359 41.2015 27.6251 41.2111 27.6141C41.2185 27.6054 41.2259 27.5967 41.233 27.5878C41.2422 27.5761 41.251 27.5641 41.2597 27.5519C41.2663 27.5428 41.2726 27.5337 41.2789 27.5243C41.287 27.5118 41.2948 27.4988 41.3022 27.4857C41.3079 27.4759 41.3137 27.4661 41.3188 27.4561C41.3258 27.443 41.3318 27.4296 41.3382 27.4161C41.3431 27.4053 41.3481 27.3948 41.3526 27.3836C41.358 27.3705 41.3626 27.357 41.3674 27.3435C41.3715 27.3316 41.3758 27.3197 41.3795 27.3075C41.3832 27.2946 41.3862 27.2813 41.3895 27.2682C41.3927 27.2549 41.3963 27.2418 41.3989 27.2283C41.4014 27.2152 41.403 27.2018 41.405 27.1885C41.407 27.1747 41.4093 27.1611 41.4107 27.147C41.4109 27.145 41.4113 27.1432 41.4114 27.1411L41.8299 22.3373H46.1452C48.7035 22.3373 49.8573 23.6628 51.0787 25.0662C52.0865 26.2241 53.2117 27.5161 55.1243 27.8313C54.8814 30.3996 54.4888 33.6967 54.3131 35.1404ZM55.2671 26.158C54.0263 25.9051 53.2629 25.0328 52.3381 23.9703C51.1815 22.6416 49.7695 21.0201 47.0628 20.7179L47.4948 15.7585C51.9216 16.4132 55.3301 20.2371 55.3301 24.8431C55.3301 25.156 55.3067 25.6107 55.2671 26.158Z" fill="#B7CEE3"/>
<path d="M19.0381 32.9141C17.35 32.9141 15.9766 34.2874 15.9766 35.9756C15.9766 37.6638 17.35 39.0371 19.0381 39.0371C20.7262 39.0371 22.0996 37.6638 22.0996 35.9756C22.0996 34.2875 20.7262 32.9141 19.0381 32.9141ZM19.0381 37.3672C18.2707 37.3672 17.6465 36.743 17.6465 35.9756C17.6465 35.2082 18.2707 34.584 19.0381 34.584C19.8055 34.584 20.4297 35.2082 20.4297 35.9756C20.4297 36.743 19.8054 37.3672 19.0381 37.3672Z" fill="#B7CEE3"/>
<path d="M45.0303 32.9141C43.3422 32.9141 41.9688 34.2874 41.9688 35.9756C41.9688 37.6638 43.3422 39.0371 45.0303 39.0371C46.7184 39.0371 48.0918 37.6638 48.0918 35.9756C48.0918 34.2875 46.7184 32.9141 45.0303 32.9141ZM45.0303 37.3672C44.2629 37.3672 43.6387 36.743 43.6387 35.9756C43.6387 35.2082 44.2629 34.584 45.0303 34.584C45.7977 34.584 46.4219 35.2082 46.4219 35.9756C46.4219 36.743 45.7977 37.3672 45.0303 37.3672Z" fill="#B7CEE3"/>
<path d="M7.90131 13.9883H3.81934C3.3581 13.9883 2.98438 14.3621 2.98438 14.8232C2.98438 15.2844 3.3581 15.6582 3.81934 15.6582H7.90131C8.36255 15.6582 8.73628 15.2844 8.73628 14.8232C8.73628 14.3621 8.36255 13.9883 7.90131 13.9883Z" fill="#B7CEE3"/>
</svg>
