<svg width="50" height="50" viewBox="0 0 50 50" fill="none" xmlns="http://www.w3.org/2000/svg">
<g clip-path="url(#clip0)">
<path d="M49.9074 11.8559C49.7353 11.2159 49.3155 10.6703 48.741 10.3396C48.1662 10.0072 47.4827 9.9173 46.8415 10.0894C46.2012 10.2619 45.6556 10.6813 45.3248 11.2558L44.9083 11.9807C44.5124 11.7533 44.0067 11.8872 43.7752 12.281L41.6589 15.8884L40.9339 15.4718C40.7419 15.3607 40.5132 15.3306 40.2993 15.3884C40.0849 15.4465 39.9026 15.5873 39.7923 15.7801C39.5666 16.1784 39.7041 16.6845 40.1007 16.9132L40.8257 17.3298L33.7436 29.6027L31.9938 34.2772L31.1606 35.8349C30.6728 36.6836 30.7249 37.7385 31.294 38.5347L29.4194 40.8341L28.8945 39.518C28.6578 38.9313 28.1098 38.5294 27.4796 38.4801C26.849 38.4305 26.2448 38.7421 25.9198 39.2844L25.62 39.7926L25.3368 36.4598C25.2717 35.6714 24.661 35.0375 23.8759 34.9423C23.0903 34.8475 22.3466 35.3182 22.0956 36.0684L20.046 42.2173C19.9027 42.6522 20.1371 43.1209 20.5708 43.2673C20.6521 43.3052 20.7396 43.3279 20.8291 43.3336C21.1871 43.3349 21.5061 43.1066 21.6208 42.7673L23.6619 36.6185L23.9536 40.0009C24.0138 40.7226 24.5325 41.3227 25.2379 41.4862C25.9434 41.6498 26.6732 41.3389 27.0447 40.7177L27.3531 40.2092L27.8697 41.5175C28.089 42.0688 28.5849 42.4622 29.172 42.5497C29.7591 42.6371 30.3482 42.4057 30.7192 41.9423L32.6606 39.4846C32.8754 39.5408 33.0967 39.5688 33.3188 39.568C34.2118 39.5749 35.041 39.1046 35.4934 38.3345L36.3265 36.9431L39.5011 33.0856L46.658 20.6625L47.383 21.0791C47.5763 21.1898 47.717 21.3725 47.7744 21.5877C47.8321 21.8013 47.802 22.0291 47.6914 22.2207L44.3586 27.9949C44.2329 28.1845 44.1902 28.4172 44.2406 28.6393C44.2911 28.861 44.4298 29.0526 44.6251 29.1694C44.8171 29.2809 45.0458 29.311 45.2598 29.2532C45.4742 29.195 45.6564 29.0543 45.7667 28.8614L49.0994 23.0873C49.4318 22.5124 49.5217 21.8289 49.3492 21.1878C49.1767 20.5474 48.7573 20.0018 48.1828 19.6711L47.4579 19.2545L49.5408 15.6467C49.7683 15.2509 49.6344 14.7456 49.241 14.5137L49.6576 13.7887C49.9989 13.2049 50.0893 12.5076 49.9074 11.8559ZM46.7662 12.089C46.8765 11.8961 47.0596 11.755 47.2748 11.6976C47.4888 11.6447 47.715 11.6744 47.9078 11.781C48.1011 11.8912 48.2418 12.0743 48.2996 12.2891C48.3525 12.5031 48.3228 12.7293 48.2162 12.9222L47.7996 13.6471L46.3497 12.8139L46.7662 12.089ZM35.41 35.352L34.9934 35.1104L33.7602 34.3935L34.9433 31.2276L37.5678 32.7438L35.41 35.352ZM32.9104 37.7596C32.5585 37.5143 32.4502 37.0424 32.6606 36.6681L33.0772 35.9435L34.5267 36.7767L34.1101 37.4932C33.9934 37.6958 33.7973 37.8398 33.569 37.8906C33.3408 37.9411 33.102 37.8939 32.9104 37.7596ZM38.5177 31.3777L35.6349 29.7113L42.3005 18.163L45.1833 19.8293L38.5177 31.3777ZM46.0165 18.3879L43.1336 16.7216L44.8 13.8387L47.6828 15.5051L46.0165 18.3879Z" fill="#B7CEE3"/>
<path d="M13.1488 37.3439L10.1997 40.2853L8.43319 38.5188C8.10813 38.1958 7.58332 38.1958 7.25826 38.5188C7.10041 38.6754 7.01172 38.8882 7.01172 39.1103C7.01172 39.3325 7.10041 39.5457 7.25826 39.7019L9.02472 41.4683C9.33717 41.7783 9.75946 41.9521 10.1997 41.9516C10.6423 41.9541 11.0682 41.7804 11.3827 41.4683L14.3237 38.5188C14.6069 38.1881 14.5877 37.6954 14.2802 37.3878C13.9722 37.0799 13.4795 37.0607 13.1488 37.3439Z" fill="#B7CEE3"/>
<path d="M3.33203 39.5848C3.33203 43.4965 6.50288 46.667 10.4142 46.667C14.3254 46.667 17.4963 43.4965 17.4963 39.5848C17.4963 39.1247 17.1232 38.7516 16.6631 38.7516C16.203 38.7516 15.8299 39.1247 15.8299 39.5848C15.8299 42.5759 13.4052 45.0006 10.4142 45.0006C7.42313 45.0006 4.99841 42.5759 4.99841 39.5848C4.99841 36.5938 7.42313 34.1691 10.4142 34.1691C11.5866 34.1658 12.7278 34.5462 13.6635 35.2525C14.0317 35.5287 14.5541 35.4539 14.8299 35.0857C15.1061 34.7175 15.0317 34.1955 14.6635 33.9193C12.5175 32.3099 9.64606 32.0511 7.24697 33.2505C4.84748 34.4502 3.33203 36.9026 3.33203 39.5848Z" fill="#B7CEE3"/>
<path d="M29.9962 6.67419C30.4563 6.67419 30.8294 6.30154 30.8294 5.841C30.8294 5.38088 30.4563 5.00781 29.9962 5.00781H8.33319C7.87306 5.00781 7.5 5.38088 7.5 5.841V9.17377C7.5 9.6343 7.87306 10.007 8.33319 10.007H29.9962C30.4563 10.007 30.8294 9.6343 30.8294 9.17377C30.8294 8.71364 30.4563 8.34058 29.9962 8.34058H9.16638V6.67419H29.9962Z" fill="#B7CEE3"/>
<path d="M10.8293 11.6729C10.3692 11.6729 9.99609 12.0459 9.99609 12.506C9.99609 12.9666 10.3692 13.3392 10.8293 13.3392H27.4931C27.9532 13.3392 28.3263 12.9666 28.3263 12.506C28.3263 12.0459 27.9532 11.6729 27.4931 11.6729H10.8293Z" fill="#B7CEE3"/>
<path d="M32.4954 17.5049H14.1652C13.7051 17.5049 13.332 17.8779 13.332 18.3381C13.332 18.7986 13.7051 19.1713 14.1652 19.1713H32.4954C32.9556 19.1713 33.3286 18.7986 33.3286 18.3381C33.3286 17.8779 32.9556 17.5049 32.4954 17.5049Z" fill="#B7CEE3"/>
<path d="M24.1622 23.3381C24.1622 22.8779 23.7892 22.5049 23.3291 22.5049H6.66522C6.2051 22.5049 5.83203 22.8779 5.83203 23.3381C5.83203 23.7986 6.2051 24.1713 6.66522 24.1713H23.3291C23.7892 24.1713 24.1622 23.7986 24.1622 23.3381Z" fill="#B7CEE3"/>
<path d="M32.4936 22.5049H26.6613C26.2012 22.5049 25.8281 22.8779 25.8281 23.3381C25.8281 23.7986 26.2012 24.1713 26.6613 24.1713H32.4936C32.9538 24.1713 33.3268 23.7986 33.3268 23.3381C33.3268 22.8779 32.9538 22.5049 32.4936 22.5049Z" fill="#B7CEE3"/>
<path d="M14.9971 28.3373C15.4573 28.3373 15.8303 27.9646 15.8303 27.5041C15.8303 27.044 15.4573 26.6709 14.9971 26.6709H6.66522C6.2051 26.6709 5.83203 27.044 5.83203 27.5041C5.83203 27.9646 6.2051 28.3373 6.66522 28.3373H14.9971Z" fill="#B7CEE3"/>
<path d="M18.3293 28.3373H24.1616C24.6218 28.3373 24.9948 27.9646 24.9948 27.5041C24.9948 27.044 24.6218 26.6709 24.1616 26.6709H18.3293C17.8692 26.6709 17.4961 27.044 17.4961 27.5041C17.4961 27.9646 17.8692 28.3373 18.3293 28.3373Z" fill="#B7CEE3"/>
<path d="M37.4936 38.3346C37.0335 38.3346 36.6604 38.7077 36.6604 39.1678V47.4997C36.6604 47.9603 36.2874 48.3329 35.8272 48.3329H2.49957C2.03945 48.3329 1.66638 47.9603 1.66638 47.4997V2.50739C1.66638 2.04726 2.03945 1.6742 2.49957 1.6742H35.8272C36.2874 1.6742 36.6604 2.04726 36.6604 2.50739V18.155C36.6604 18.6151 37.0335 18.9881 37.4936 18.9881C37.9537 18.9881 38.3268 18.6151 38.3268 18.155V2.50739C38.3268 1.12701 37.2076 0.0078125 35.8272 0.0078125H2.49957C1.11919 0.0078125 0 1.12701 0 2.50739V47.4997C0 48.8805 1.11919 49.9993 2.49957 49.9993H35.8272C37.2076 49.9993 38.3268 48.8805 38.3268 47.4997V39.1678C38.3268 38.7077 37.9537 38.3346 37.4936 38.3346Z" fill="#B7CEE3"/>
</g>
<defs>
<clipPath id="clip0">
<rect width="50" height="50" fill="white"/>
</clipPath>
</defs>
</svg>
