<svg width="49" height="49" viewBox="0 0 49 49" fill="none" xmlns="http://www.w3.org/2000/svg">
<path d="M47.0704 25.3134C48.2323 24.5413 49 23.2212 49 21.7246C49 19.3516 47.068 17.4211 44.6934 17.4211H29.3255C31.8 13.4812 33.1022 9.0108 33.1022 4.41093C33.1103 2.00734 31.2022 0.0287748 28.8488 0.000542379C27.6819 -0.0178326 26.5853 0.431302 25.7589 1.2532C24.9324 2.0751 24.4815 3.16975 24.4892 4.33092C24.4892 8.85576 21.63 12.9291 17.3742 14.4666L9.2054 17.4179H7.17773V16.7002C7.17773 16.3037 6.85646 15.9824 6.45996 15.9824H0.717773C0.321275 15.9824 0 16.3037 0 16.7002V48.2822C0 48.6787 0.321275 49 0.717773 49H6.45996C6.85646 49 7.17773 48.6787 7.17773 48.2822V47.5644H37.4447C38.6178 47.5644 39.7643 47.0816 40.5902 46.2398C41.4061 45.408 41.8434 44.3193 41.8215 43.174C41.801 42.1066 41.3832 41.131 40.713 40.3867H43.2578C45.6325 40.3867 47.5645 38.4547 47.5645 36.08C47.5645 34.8412 47.038 33.7236 46.1978 32.9373C47.8327 32.3256 49 30.7479 49 28.9023C49 27.4057 48.2323 26.0856 47.0704 25.3134ZM47.5645 21.7246C47.5645 23.3077 46.2765 24.5957 44.6934 24.5957H34.4469C32.8638 24.5957 31.5758 23.3077 31.5758 21.7246C31.5758 20.1433 32.8638 18.8566 34.4469 18.8566H44.6934C46.2765 18.8566 47.5645 20.1432 47.5645 21.7246ZM17.8621 15.8167C22.6846 14.0743 25.9247 9.4585 25.9247 4.32613C25.9196 3.54883 26.2202 2.8189 26.7711 2.271C27.3137 1.73143 28.0313 1.43561 28.7955 1.43561C28.8074 1.43561 28.8195 1.43571 28.8314 1.4358C30.4003 1.45466 31.6722 2.78713 31.6666 4.40844C31.6666 9.15904 30.1913 13.764 27.4002 17.7254C27.3149 17.8464 27.2692 17.9907 27.2692 18.1388C27.2692 26.0393 21.5364 31.7735 13.6377 31.7735C13.2412 31.7735 12.9199 32.0948 12.9199 32.4913C12.9199 32.8878 13.2412 33.209 13.6377 33.209C17.7086 33.209 21.4767 31.7428 24.2479 29.0801C26.9609 26.4736 28.5224 22.865 28.6889 18.8565H31.2393C30.5564 19.6183 30.1402 20.6236 30.1402 21.7245C30.1402 23.2211 30.9079 24.5412 32.0697 25.3133C30.9078 26.0855 30.1402 27.4056 30.1402 28.9022C30.1402 30.3988 30.9079 31.719 32.0697 32.4911C30.9078 33.2632 30.1402 34.5833 30.1402 36.0799C30.1402 37.5766 30.9079 38.8967 32.0697 39.6688C30.9078 40.4409 30.1402 41.7611 30.1402 43.2577C30.1402 44.3599 30.5569 45.3662 31.2403 46.1288H10.0488V18.6396L17.8621 15.8167ZM6.45996 43.2578C6.06346 43.2578 5.74219 43.5791 5.74219 43.9756V47.5644H1.43555V17.4179H5.74219V41.1045C5.74219 41.501 6.06346 41.8222 6.45996 41.8222C6.85646 41.8222 7.17773 41.501 7.17773 41.1045V18.8535H8.61328V46.1289H7.17773V43.9756C7.17773 43.5791 6.85646 43.2578 6.45996 43.2578ZM40.3861 43.2015C40.4006 43.9581 40.1091 44.6801 39.5654 45.2344C39.0078 45.8028 38.2348 46.1289 37.4447 46.1289H34.4469C32.8638 46.1289 31.5758 44.8409 31.5758 43.2578C31.5758 41.6747 32.8638 40.3867 34.4469 40.3867H37.5156C39.0688 40.3867 40.3565 41.6494 40.3861 43.2015ZM43.2578 38.9511H34.4469C32.8638 38.9511 31.5758 37.6632 31.5758 36.08C31.5758 34.4969 32.8638 33.209 34.4469 33.209H43.2578C44.8409 33.209 46.1289 34.4969 46.1289 36.08C46.1289 37.6632 44.8409 38.9511 43.2578 38.9511ZM44.6934 31.7734H34.4469C32.8638 31.7734 31.5758 30.4854 31.5758 28.9023C31.5758 27.3192 32.8638 26.0312 34.4469 26.0312H44.6934C46.2765 26.0312 47.5645 27.3192 47.5645 28.9023C47.5645 30.4854 46.2765 31.7734 44.6934 31.7734Z" fill="#B7CEE3"/>
</svg>
