<?xml version="1.0" encoding="utf-8"?><svg viewBox="0 0 26 27" xmlns="http://www.w3.org/2000/svg" xmlns:xlink="http://www.w3.org/1999/xlink"><style>:root>svg{display:none}:root>svg:target{display:block}</style><svg fill="none" viewBox="0 0 26 27" id="ic_arrow" xmlns="http://www.w3.org/2000/svg"><path d="M.406 13.5c0 7.225 5.637 13.078 12.594 13.078S25.594 20.725 25.594 13.5 19.957.422 13 .422.406 6.275.406 13.5zM13 2.11c6.028 0 10.969 5.067 10.969 11.39 0 6.26-4.88 11.39-10.969 11.39-6.028 0-10.969-5.067-10.969-11.39C2.031 7.24 6.911 2.11 13 2.11zm.635 4.877l5.845 6.065a.65.65 0 0 1 0 .896l-5.845 6.065a.594.594 0 0 1-.864 0l-.35-.364a.647.647 0 0 1 .01-.902l4.342-4.35H7.109a.623.623 0 0 1-.609-.633v-.528c0-.348.274-.633.61-.633h9.663l-4.347-4.35a.652.652 0 0 1-.01-.902l.35-.364a.6.6 0 0 1 .869 0z" fill="currentColor"/></svg><svg fill="none" viewBox="0 0 10 10" id="ic_close" xmlns="http://www.w3.org/2000/svg"><path d="M5.916 5.008L9.81 1.114a.647.647 0 1 0-.916-.916L5 4.092 1.106.198a.647.647 0 1 0-.916.916l3.894 3.894L.19 8.902a.647.647 0 1 0 .916.916L5 5.924l3.894 3.894a.646.646 0 0 0 .916 0 .647.647 0 0 0 0-.916L5.916 5.008z" fill="currentColor"/></svg><svg fill="none" viewBox="0 0 19 27" id="ic_location" xmlns="http://www.w3.org/2000/svg"><path d="M9.5.844a9.281 9.281 0 0 0-9.281 9.281c0 4.902 8.269 15.272 8.623 15.72a.845.845 0 0 0 1.316 0c.354-.448 8.623-10.818 8.623-15.72A9.281 9.281 0 0 0 9.5.844zm0 23.102C6.893 20.57 1.906 13.399 1.906 10.125a7.594 7.594 0 1 1 15.188 0c0 3.274-4.987 10.429-7.594 13.82z" fill="currentColor"/><path d="M9.5 4.219a5.063 5.063 0 1 0 0 10.125 5.063 5.063 0 0 0 0-10.125zm0 8.437a3.375 3.375 0 1 1 0-6.75 3.375 3.375 0 0 1 0 6.75z" fill="currentColor"/></svg><svg fill="none" viewBox="0 0 14 25" id="ic_sep_arrow" xmlns="http://www.w3.org/2000/svg"><path d="M2.457 24.388a.838.838 0 0 1-.607.251.86.86 0 0 1-.607-1.465L11.918 12.5 1.243 1.825A.859.859 0 0 1 2.457.612l11.282 11.28a.859.859 0 0 1 0 1.215L2.457 24.388z" fill="currentColor"/></svg><svg fill="none" viewBox="0 0 21 19" id="ic_slider_arrow" xmlns="http://www.w3.org/2000/svg"><path d="M1.116 10.359l7.181 7.77c.205.22.478.343.77.343.291 0 .564-.122.77-.344l.651-.705a1.22 1.22 0 0 0 .318-.833c0-.315-.113-.62-.318-.842l-4.19-4.543H19.61c.6 0 1.075-.508 1.075-1.157V9.05c0-.65-.475-1.209-1.075-1.209H6.251l4.237-4.567a1.2 1.2 0 0 0 .318-.825 1.21 1.21 0 0 0-.318-.829L9.836.917a1.04 1.04 0 0 0-.77-.343c-.29 0-.564.123-.77.345l-7.18 7.769a1.22 1.22 0 0 0-.318.835c-.001.317.112.614.318.836z" fill="currentColor"/></svg></svg>